<?xml version="1.0" encoding="utf-8"?>
<!-- Generator: Adobe Illustrator 16.0.0, SVG Export Plug-In . SVG Version: 6.00 Build 0)  -->
<!DOCTYPE svg PUBLIC "-//W3C//DTD SVG 1.1//EN" "http://www.w3.org/Graphics/SVG/1.1/DTD/svg11.dtd">
<svg version="1.1" id="Layer_1" xmlns="http://www.w3.org/2000/svg" xmlns:xlink="http://www.w3.org/1999/xlink" x="0px" y="0px"
	 width="360px" height="68.4px" viewBox="0 0 360 68.4" enable-background="new 0 0 360 68.4" xml:space="preserve">
<g>
	<path fill="#3060A3" d="M21.755,26.885c14.979-5.597,25.184,1.812,25.184,1.812C35.911,12.07,15.335,20.63,15.994,23.429
		C16.653,26.227,21.755,26.885,21.755,26.885z M32.454,28.696c-11.522-0.66-13.333,0-17.284-3.292
		c-3.95-3.292-10.041-1.481-10.37,2.633l-4.773,2.142l1.81-0.165c0,0,4.115-1.152,8.066,3.128
		c3.951,4.277,12.838,6.583,24.526,3.457c11.686-3.127,16.789,2.305,16.789,2.305S43.976,29.354,32.454,28.696z M20.438,39.77
		c0,0-6.09-0.991-8.065-3.173c0,0,1.152,13.29,16.625,12.894C28.998,49.49,22.742,47.704,20.438,39.77z"/>
	<g>
		<path fill="#FFFFFF" d="M358.182,43.217c-1.055-1.492-2.604-2.784-4.646-3.882c-2.041-1.097-4.675-2.04-7.901-2.829
			c-2.721-0.664-4.855-1.224-6.412-1.682c-1.55-0.458-2.783-1.039-3.697-1.738c-0.915-0.701-1.374-1.601-1.374-2.697
			c0-1.197,0.623-2.196,1.868-3c1.246-0.803,2.812-1.205,4.694-1.205c1.831,0,3.281,0.306,4.351,0.918
			c1.067,0.61,1.998,1.426,2.783,2.445c0.968,1.225,1.824,2.143,2.57,2.751c0.75,0.613,1.658,0.918,2.725,0.918
			c1.471,0,2.604-0.384,3.405-1.151c0.797-0.768,1.2-1.753,1.2-2.957c0-1.102-0.379-2.227-1.125-3.379
			c-0.752-1.152-1.843-2.202-3.28-3.148c-1.437-0.947-3.228-1.703-5.373-2.266c-2.146-0.563-4.566-0.847-7.262-0.847
			c-3.431,0-6.358,0.557-8.785,1.667c-2.427,1.112-4.266,2.601-5.509,4.466c-1.248,1.864-1.867,3.847-1.867,5.941
			c0,2.351,0.673,4.331,2.021,5.943c1.349,1.608,3.147,2.903,5.396,3.89c2.25,0.983,5.164,1.921,8.751,2.814
			c3.181,0.767,5.462,1.566,6.851,2.411c1.385,0.843,2.08,2.179,2.08,4.013c0,1.199-0.67,2.264-2.003,3.194
			c-1.339,0.931-3.047,1.395-5.134,1.395c-2.569,0-4.597-0.457-6.084-1.376c-1.489-0.918-2.766-2.307-3.834-4.168
			c-0.533-0.967-1.096-1.721-1.68-2.255c-0.584-0.535-1.422-0.803-2.518-0.803c-1.242,0-2.271,0.404-3.085,1.219
			c-0.358,0.36-0.626,0.757-0.826,1.179c0.009-0.225,0.021-0.448,0.021-0.681c0-1.908-0.526-3.61-1.581-5.103
			c-1.054-1.492-2.604-2.784-4.646-3.882c-2.045-1.097-4.678-2.04-7.901-2.829c-2.723-0.664-4.86-1.224-6.41-1.682
			c-1.552-0.458-2.784-1.039-3.702-1.738c-0.916-0.701-1.371-1.601-1.371-2.698c0-1.196,0.623-2.195,1.867-3
			c1.246-0.802,2.811-1.204,4.694-1.204c1.831,0,3.281,0.306,4.353,0.918c1.065,0.61,1.996,1.426,2.784,2.445
			c0.963,1.225,1.821,2.143,2.569,2.751c0.747,0.613,1.656,0.918,2.723,0.918c1.471,0,2.605-0.384,3.407-1.151
			c0.797-0.768,1.196-1.753,1.196-2.957c0-1.102-0.377-2.227-1.124-3.379c-0.752-1.152-1.841-2.202-3.278-3.148
			c-1.437-0.947-3.228-1.703-5.375-2.266c-2.146-0.563-4.567-0.847-7.261-0.847c-3.431,0-6.358,0.557-8.785,1.667
			c-2.343,1.074-4.122,2.506-5.364,4.281c-1.203-1.279-2.635-2.405-4.31-3.367c-2.994-1.72-6.583-2.58-10.767-2.58
			c-3.216,0-6.144,0.504-8.779,1.51c-2.639,1.005-4.858,2.449-6.659,4.333c-1.798,1.883-3.168,4.141-4.108,6.772
			c-0.937,2.633-1.404,5.491-1.404,8.569c0,4.697,0.998,8.677,2.959,11.968h-18.793V11.795c0-2.319-0.528-4.048-1.586-5.186
			c-1.06-1.133-2.442-1.703-4.151-1.703c-1.685,0-3.04,0.575-4.073,1.721c-1.031,1.147-1.549,2.868-1.549,5.162v43.17
			c0,2.446,0.541,4.215,1.625,5.312c1.084,1.097,2.863,1.645,5.337,1.645h27.41c1.858,0,3.272-0.426,4.241-1.276
			c0.162-0.143,0.289-0.303,0.425-0.458c2.844,1.144,6.131,1.734,9.894,1.734c3.006,0,5.668-0.383,7.979-1.144
			c2.312-0.764,4.235-1.723,5.766-2.88c0.356-0.27,0.687-0.54,0.999-0.813c1.223,1.208,2.848,2.25,4.889,3.122
			c2.668,1.145,5.869,1.715,9.606,1.715c3.913,0,7.235-0.528,9.967-1.579c2.729-1.055,4.797-2.604,6.193-4.646
			c0.828-1.211,1.404-2.567,1.742-4.068c0.177,1.436,0.786,2.868,1.844,4.295c1.271,1.715,3.241,3.144,5.909,4.285
			c2.668,1.145,5.868,1.715,9.604,1.715c3.914,0,7.234-0.528,9.968-1.579c2.73-1.055,4.796-2.604,6.192-4.646
			c1.398-2.043,2.097-4.5,2.097-7.372C359.763,46.41,359.235,44.708,358.182,43.217z M269.299,29.465
			c1.71-1.774,3.901-2.661,6.571-2.661c2.796,0,5.05,0.875,6.762,2.623c1.711,1.75,2.699,4.387,2.96,7.909H266.18
			C266.547,33.864,267.587,31.241,269.299,29.465z M312.379,53.809c-1.338,0.931-3.048,1.395-5.133,1.395
			c-2.569,0-4.598-0.457-6.084-1.376c-1.489-0.918-2.768-2.307-3.835-4.168c-0.535-0.967-1.095-1.721-1.677-2.255
			c-0.588-0.535-1.424-0.803-2.521-0.803c-1.245,0-2.271,0.404-3.086,1.219c-0.028,0.029-0.05,0.064-0.08,0.097
			c-0.254,0.104-0.487,0.229-0.685,0.389c-1.336,1.218-2.418,2.183-3.254,2.892c-0.84,0.711-1.754,1.375-2.748,1.995
			c-0.991,0.621-2.02,1.077-3.078,1.368c-1.059,0.293-2.229,0.438-3.51,0.438c-1.908,0-3.65-0.458-5.234-1.369
			c-1.581-0.913-2.85-2.268-3.803-4.067c-0.957-1.799-1.447-3.878-1.475-6.234h20.943c2.798,0,4.968-0.387,6.512-1.165
			c0.666-0.335,1.18-0.853,1.557-1.536c0.479,0.268,0.979,0.521,1.509,0.751c2.252,0.983,5.165,1.921,8.752,2.814
			c3.182,0.767,5.463,1.566,6.848,2.411c1.387,0.843,2.082,2.179,2.082,4.013C314.381,51.813,313.714,52.878,312.379,53.809z"/>
		<g>
			<path fill="#FFFFFF" d="M219.699,21.961v1.006h1.131c1.175,0,2.109,0.167,2.803,0.501c0.693,0.333,1.2,0.899,1.516,1.696
				c0.317,0.797,0.479,1.892,0.479,3.282c0,2.465-0.539,3.698-1.615,3.698c-0.353,0-0.65-0.129-0.898-0.388
				c-0.248-0.258-0.371-0.562-0.371-0.911c0-0.166,0.025-0.45,0.083-0.854c0.054-0.402,0.083-0.743,0.083-1.021
				c0-0.765-0.201-1.255-0.6-1.471c-0.399-0.216-0.97-0.326-1.715-0.326H219.7v1.038c0,1.609-0.433,2.415-1.298,2.415
				c-0.617,0-1.008-0.214-1.172-0.643c-0.168-0.429-0.252-1.02-0.252-1.771v-1.038h-10.002c-0.748,0-1.318-0.197-1.711-0.592
				c-0.393-0.396-0.588-0.908-0.588-1.535c0-0.596,0.195-1.092,0.588-1.487s0.963-0.595,1.711-0.595h10.002v-1.16
				c0-0.628,0.129-1.114,0.383-1.455c0.252-0.341,0.582-0.511,0.988-0.511C219.249,19.841,219.699,20.547,219.699,21.961z"/>
			<path fill="#FFFFFF" d="M212.359,47.619c-1.127,0-2.164-0.197-3.114-0.59c-0.951-0.394-1.767-0.958-2.451-1.702
				c-0.681-0.742-1.204-1.631-1.569-2.663c-0.363-1.033-0.547-2.196-0.547-3.485c0-1.278,0.186-2.433,0.553-3.452
				c0.369-1.022,0.896-1.909,1.582-2.658c0.688-0.748,1.498-1.316,2.436-1.704c0.936-0.386,1.97-0.581,3.104-0.581
				c1.144,0,2.188,0.197,3.139,0.588c0.949,0.394,1.761,0.957,2.432,1.688c0.676,0.733,1.191,1.622,1.559,2.666
				c0.362,1.042,0.545,2.192,0.545,3.451c0,1.28-0.185,2.443-0.551,3.486c-0.371,1.042-0.896,1.936-1.574,2.68
				c-0.682,0.741-1.491,1.308-2.432,1.695C214.525,47.426,213.493,47.619,212.359,47.619z M212.359,43.377
				c1.539,0,2.738-0.377,3.595-1.138c0.854-0.759,1.284-1.779,1.284-3.062c0-0.825-0.189-1.554-0.572-2.185
				c-0.384-0.632-0.948-1.113-1.693-1.457c-0.748-0.34-1.617-0.511-2.613-0.511c-0.984,0-1.846,0.167-2.584,0.503
				c-0.736,0.337-1.303,0.814-1.692,1.44c-0.392,0.625-0.588,1.362-0.588,2.208c0,1.282,0.429,2.304,1.292,3.062
				C209.646,43,210.838,43.377,212.359,43.377z"/>
			<path fill="#FFFFFF" d="M210.116,54.502h-3.147c-0.764,0-1.337-0.2-1.72-0.602c-0.38-0.4-0.571-0.909-0.571-1.527
				c0-0.604,0.193-1.104,0.579-1.495c0.39-0.389,0.961-0.585,1.716-0.585h10.506c1.696,0,2.545,0.685,2.545,2.05
				c0,0.698-0.197,1.204-0.598,1.513c-0.4,0.308-0.988,0.479-1.768,0.51c0.777,0.504,1.367,1.021,1.768,1.553
				c0.399,0.533,0.598,1.241,0.598,2.129s-0.197,1.748-0.598,2.585c-0.398,0.835-0.928,1.254-1.585,1.254
				c-0.463,0-0.846-0.178-1.147-0.532c-0.301-0.355-0.449-0.742-0.449-1.155c0-0.154,0.084-0.529,0.254-1.121
				c0.171-0.594,0.259-1.116,0.259-1.571c0-0.618-0.146-1.125-0.438-1.517c-0.289-0.393-0.717-0.695-1.289-0.914
				c-0.568-0.217-1.248-0.365-2.034-0.448C212.205,54.542,211.246,54.502,210.116,54.502z"/>
		</g>
		<path fill="#E67E22" d="M160.803,21.368c-2.051-1.088-4.165-1.633-6.342-1.633c-2.179,0-3.919,0.545-5.223,1.633
			c-1.306,1.091-2.577,2.699-3.819,4.826c-0.077-2.127-0.494-3.735-1.254-4.826c-0.76-1.088-1.999-1.633-3.72-1.633
			c-3.368,0-5.049,2.332-5.049,6.992v28.88c0,2.079,0.481,3.649,1.443,4.714c0.961,1.064,2.188,1.597,3.682,1.597
			c1.519,0,2.771-0.524,3.759-1.575c0.988-1.053,1.482-2.63,1.482-4.734v-8.663c0-3.115,0.101-5.757,0.302-7.924
			c0.202-2.164,0.57-4.032,1.103-5.605c0.532-1.572,1.279-2.754,2.242-3.553c0.961-0.798,2.203-1.197,3.723-1.197
			c1.113,0,2.399,0.234,3.854,0.703c1.456,0.468,2.374,0.702,2.754,0.702c1.014,0,1.956-0.41,2.831-1.236
			c0.873-0.821,1.31-1.866,1.31-3.132C163.88,23.901,162.854,22.458,160.803,21.368z M200.831,21.277
			c-0.929-1.028-2.162-1.542-3.696-1.542c-1.537,0-2.781,0.521-3.736,1.562c-0.955,1.043-1.434,2.592-1.434,4.649v12.65
			c0,4.979-0.296,8.204-0.879,9.679c-0.712,1.677-1.843,3.035-3.393,4.074c-1.551,1.043-3.203,1.562-4.957,1.562
			c-1.805,0-3.234-0.464-4.29-1.39c-1.056-0.927-1.785-2.209-2.192-3.85c-0.408-1.64-0.609-3.664-0.609-6.077v-16.65
			c0-2.058-0.481-3.606-1.443-4.649c-0.962-1.041-2.229-1.562-3.798-1.562c-1.544,0-2.784,0.514-3.72,1.542
			c-0.937,1.029-1.405,2.585-1.405,4.667v20.608c0,4.14,0.646,7.312,1.937,9.523c1.091,1.819,2.634,3.249,4.626,4.285
			c1.991,1.036,4.243,1.556,6.755,1.556c2.082,0,3.935-0.262,5.56-0.776c1.619-0.521,3.117-1.311,4.488-2.372
			c1.371-1.061,2.676-2.377,3.922-3.945v1.328c0,1.848,0.459,3.282,1.377,4.307c0.918,1.021,2.084,1.534,3.494,1.534
			c1.408,0,2.556-0.493,3.449-1.484c0.894-0.987,1.338-2.476,1.338-4.452V25.94C202.227,23.858,201.76,22.305,200.831,21.277z
			 M131.754,42.285c1.494-0.774,2.242-2.462,2.242-5.072c0-2.811-0.724-5.573-2.167-8.282c-1.443-2.71-3.615-4.922-6.515-6.632
			c-2.899-1.709-6.375-2.563-10.427-2.563c-3.116,0-5.952,0.5-8.505,1.499c-2.447,0.956-4.51,2.324-6.212,4.08
			c0.146-1.048,0.239-2.141,0.239-3.304c0-2.665-0.43-5.063-1.289-7.196c-0.857-2.133-2.113-3.936-3.765-5.407
			c-1.654-1.473-3.615-2.527-5.886-3.162c-2.309-0.653-5.607-0.98-9.896-0.98h-14.5c-2.487,0-4.301,0.531-5.443,1.596
			c-1.142,1.063-1.713,2.837-1.713,5.319v15.635h11.29V13.68h7.619c5.054,0,8.393,0.828,10.018,2.487
			c1.447,1.555,2.172,3.57,2.172,6.042c0,2.068-0.47,3.738-1.41,5.015c-0.94,1.274-2.305,2.19-4.095,2.753
			c-1.79,0.562-4.019,0.842-6.685,0.842L52.82,30.777l-2.189,3.833l2.053,4.104h5.234v16.402c0,2.228,0.521,3.921,1.56,5.071
			c1.038,1.151,2.408,1.729,4.105,1.729c1.622,0,2.963-0.581,4.029-1.743c1.064-1.16,1.596-2.866,1.596-5.113V39.337h10.361
			c6.909,0,12.108-1.465,15.602-4.398c0.023-0.021,0.042-0.042,0.065-0.062c-0.417,1.871-0.644,3.837-0.644,5.912
			c0,6.502,1.844,11.646,5.532,15.439c3.688,3.795,8.862,5.689,15.522,5.689c2.912,0,5.489-0.38,7.731-1.138
			c2.241-0.756,4.102-1.71,5.583-2.858c1.482-1.147,2.591-2.349,3.325-3.597c0.734-1.251,1.101-2.343,1.101-3.278
			c0-1.062-0.33-1.881-0.988-2.461c-0.659-0.581-1.521-0.873-2.583-0.873c-0.987,0-1.748,0.228-2.279,0.681
			c-1.292,1.209-2.343,2.167-3.153,2.873c-0.812,0.705-1.698,1.365-2.66,1.981c-0.963,0.617-1.956,1.071-2.981,1.36
			c-1.026,0.287-2.159,0.432-3.4,0.432c-1.849,0-3.539-0.449-5.07-1.357c-1.534-0.907-2.762-2.252-3.685-4.042
			c-0.926-1.789-1.401-3.854-1.425-6.194h20.284C128.156,43.444,130.259,43.058,131.754,42.285z M105.163,37.491
			c0.353-3.452,1.36-6.06,3.018-7.824c1.659-1.763,3.78-2.645,6.365-2.645c2.709,0,4.893,0.868,6.552,2.606
			c1.658,1.738,2.615,4.358,2.869,7.862H105.163z"/>
	</g>
</g>
</svg>
